<svg xmlns="http://www.w3.org/2000/svg" xmlns:xlink="http://www.w3.org/1999/xlink" width="48" height="48"><defs><linearGradient id="a"><stop offset="0" stop-color="#fff" stop-opacity="0"/><stop offset="1" stop-color="#fff"/></linearGradient><linearGradient id="b"><stop offset="0" stop-color="#eff1f1"/><stop offset="1" stop-color="#ececec"/></linearGradient><linearGradient id="c"><stop offset="0" stop-opacity="0"/><stop offset="1"/></linearGradient><linearGradient id="d" x1="35" x2="19" y1="44" y2="3" gradientUnits="userSpaceOnUse"><stop offset="0" stop-color="#e22828"/><stop offset="1" stop-color="#e05e4c"/></linearGradient><linearGradient id="e" x1="-17" x2="-7" y1="12" y2="12" gradientUnits="userSpaceOnUse" xlink:href="#c"/><radialGradient id="f" cx="-12" cy="12" r="4" gradientUnits="userSpaceOnUse" xlink:href="#b"/><linearGradient id="g" x1="7" x2="17" y1="12" y2="12" gradientUnits="userSpaceOnUse" xlink:href="#a"/><linearGradient id="h" x1="-29" x2="-19" y1="24" y2="24" gradientUnits="userSpaceOnUse" xlink:href="#c"/><radialGradient id="i" cx="-24" cy="24" r="4" gradientUnits="userSpaceOnUse" xlink:href="#b"/><linearGradient id="j" x1="19" x2="29" y1="24" y2="24" gradientUnits="userSpaceOnUse" xlink:href="#a"/><linearGradient id="k" x1="-41" x2="-31" y1="36" y2="36" gradientUnits="userSpaceOnUse" xlink:href="#c"/><radialGradient id="l" cx="-36" cy="36" r="4" gradientUnits="userSpaceOnUse" xlink:href="#b"/><linearGradient id="m" x1="31" x2="41" y1="36" y2="36" gradientUnits="userSpaceOnUse" xlink:href="#a"/></defs><g><rect width="40" height="40" x="4" y="4" fill="url(#d)" rx="2"/><path d="m4 41v1c0 1.108.892 2 2 2h36c1.108 0 2-.892 2-2v-1c0 1.108-.892 2-2 2h-36c-1.108 0-2-.892-2-2z" opacity=".15"/><rect width="8" height="8" x="-16" y="8" fill="none" stroke="url(#e)" stroke-width="2" opacity=".1" rx="4" transform="rotate(-90)"/><rect width="8" height="8" x="-16" y="8" fill="url(#f)" rx="4" transform="rotate(-90)"/><rect width="8" height="8" x="8" y="8" fill="none" stroke="url(#g)" stroke-width="2" opacity=".1" rx="4" transform="matrix(0 1 1 0 0 0)"/><rect width="8" height="8" x="-28" y="20" fill="none" stroke="url(#h)" stroke-width="2" opacity=".1" rx="4" transform="rotate(-90)"/><rect width="8" height="8" x="-28" y="20" fill="url(#i)" rx="4" transform="rotate(-90)"/><rect width="8" height="8" x="20" y="20" fill="none" stroke="url(#j)" stroke-width="2" opacity=".1" rx="4" transform="matrix(0 1 1 0 0 0)"/><rect width="8" height="8" x="-40" y="32" fill="none" stroke="url(#k)" stroke-width="2" opacity=".1" rx="4" transform="rotate(-90)"/><rect width="8" height="8" x="-40" y="32" fill="url(#l)" rx="4" transform="rotate(-90)"/><rect width="8" height="8" x="32" y="32" fill="none" stroke="url(#m)" stroke-width="2" opacity=".1" rx="4" transform="matrix(0 1 1 0 0 0)"/></g></svg>