<?xml version="1.0" encoding="UTF-8" standalone="no"?>
<svg height="48" width="48" xmlns="http://www.w3.org/2000/svg" xmlns:xlink="http://www.w3.org/1999/xlink">
  <defs>
    <linearGradient id="a">
      <stop offset="0" stop-color="#fff" stop-opacity="0"/>
      <stop offset="1" stop-color="#fff"/>
    </linearGradient>
    <linearGradient id="b">
      <stop offset="0" stop-color="#eff1f1"/>
      <stop offset="1" stop-color="#ececec"/>
    </linearGradient>
    <linearGradient id="c">
      <stop offset="0" stop-opacity="0"/>
      <stop offset="1"/>
    </linearGradient>
    <linearGradient id="d" gradientUnits="userSpaceOnUse" x1="35" x2="19" y1="44" y2="3">
      <stop offset="0" stop-color="#e22828"/>
      <stop offset="1" stop-color="#e05e4c"/>
    </linearGradient>
    <linearGradient id="e" gradientUnits="userSpaceOnUse" x1="-17" x2="-7" xlink:href="#c" y1="12" y2="12"/>
    <radialGradient id="f" cx="-12" cy="12" gradientUnits="userSpaceOnUse" r="4" xlink:href="#b"/>
    <linearGradient id="g" gradientUnits="userSpaceOnUse" x1="7" x2="17" xlink:href="#a" y1="12" y2="12"/>
    <linearGradient id="h" gradientUnits="userSpaceOnUse" x1="-29" x2="-19" xlink:href="#c" y1="24" y2="24"/>
    <radialGradient id="i" cx="-24" cy="24" gradientUnits="userSpaceOnUse" r="4" xlink:href="#b"/>
    <linearGradient id="j" gradientUnits="userSpaceOnUse" x1="19" x2="29" xlink:href="#a" y1="24" y2="24"/>
    <linearGradient id="k" gradientUnits="userSpaceOnUse" x1="-41" x2="-31" xlink:href="#c" y1="36" y2="36"/>
    <radialGradient id="l" cx="-36" cy="36" gradientUnits="userSpaceOnUse" r="4" xlink:href="#b"/>
    <linearGradient id="m" gradientUnits="userSpaceOnUse" x1="31" x2="41" xlink:href="#a" y1="36" y2="36"/>
  </defs>
  <g>
    <rect fill="url(#d)" height="40" rx="2" width="40" x="4" y="4"/>
    <path d="m4 41v1c0 1.108.892 2 2 2h36c1.108 0 2-.892 2-2v-1c0 1.108-.892 2-2 2h-36c-1.108 0-2-.892-2-2z" opacity=".15"/>
    <rect fill="none" height="8" opacity=".1" rx="4" stroke="url(#e)" stroke-width="2" transform="rotate(-90)" width="8" x="-16" y="8"/>
    <rect fill="url(#f)" height="8" rx="4" transform="rotate(-90)" width="8" x="-16" y="8"/>
    <rect fill="none" height="8" opacity=".1" rx="4" stroke="url(#g)" stroke-width="2" transform="matrix(0 1 1 0 0 0)" width="8" x="8" y="8"/>
    <rect fill="none" height="8" opacity=".1" rx="4" stroke="url(#h)" stroke-width="2" transform="rotate(-90)" width="8" x="-28" y="20"/>
    <rect fill="url(#i)" height="8" rx="4" transform="rotate(-90)" width="8" x="-28" y="20"/>
    <rect fill="none" height="8" opacity=".1" rx="4" stroke="url(#j)" stroke-width="2" transform="matrix(0 1 1 0 0 0)" width="8" x="20" y="20"/>
    <rect fill="none" height="8" opacity=".1" rx="4" stroke="url(#k)" stroke-width="2" transform="rotate(-90)" width="8" x="-40" y="32"/>
    <rect fill="url(#l)" height="8" rx="4" transform="rotate(-90)" width="8" x="-40" y="32"/>
    <rect fill="none" height="8" opacity=".1" rx="4" stroke="url(#m)" stroke-width="2" transform="matrix(0 1 1 0 0 0)" width="8" x="32" y="32"/>
  </g>
</svg>
