<svg xmlns="http://www.w3.org/2000/svg" viewBox="101.46400000000006 0 807.014 1024">
  <path d="M 799.596 16.208 c -90.526 0 -148.62 -16.208 -241.848 -16.208 c -301.284 0 -441.792 171.584 -441.792 345.872 c 0 102.678 48.64 136.458 144.564 136.458 c -6.758 -14.864 -18.914 -31.08 -18.914 -104.034 c 0 -204.01 77.006 -263.458 175.636 -267.51 c 0 0 -80.918 793.374 -315.778 888.542 v 24.672 h 302.536 l 108.026 -512 h 197.844 l 44.072 -128 h -214.908 l 51.944 -246.19 c 59.446 12.156 117.542 24.316 167.532 24.316 c 62.148 0 118.894 -18.914 149.968 -162.126 c -37.826 12.16 -78.362 16.208 -122.94 16.208 z" fill="#000000"/>
</svg>